HIERARCHY
ROOT root
{
	OFFSET 0.000000 0.000000 0.000000
	CHANNELS 6 Xposition Yposition Zposition Zrotation Yrotation Xrotation
	JOINT lhip
	{
		OFFSET 0.058581 -0.082280 -0.017664
		CHANNELS 3 Zrotation Yrotation Xrotation
		JOINT lknee
		{
			OFFSET 0.043451 -0.386469 0.008037
			CHANNELS 3 Zrotation Yrotation Xrotation
			JOINT lankle
			{
				OFFSET -0.014790 -0.426874 -0.037428
				CHANNELS 3 Zrotation Yrotation Xrotation
				JOINT ltoe
				{
					OFFSET 0.041054 -0.060286 0.122042
					CHANNELS 3 Zrotation Yrotation Xrotation
					End Site
					{
						OFFSET 0.000000 0.000000 0.000000
					}
				}
			}
		}
	}
	JOINT rhip
	{
		OFFSET -0.060310 -0.090513 -0.013543
		CHANNELS 3 Zrotation Yrotation Xrotation
		JOINT rknee
		{
			OFFSET -0.043257 -0.383688 -0.004843
			CHANNELS 3 Zrotation Yrotation Xrotation
			JOINT rankle
			{
				OFFSET 0.019056 -0.420046 -0.034562
				CHANNELS 3 Zrotation Yrotation Xrotation
				JOINT rtoe
				{
					OFFSET -0.034840 -0.062106 0.130323
					CHANNELS 3 Zrotation Yrotation Xrotation
					End Site
					{
						OFFSET 0.000000 0.000000 0.000000
					}
				}
			}
		}
	}
	JOINT lowerback
	{
		OFFSET 0.004439 0.124404 -0.038385
		CHANNELS 3 Zrotation Yrotation Xrotation
		JOINT upperback
		{
			OFFSET 0.004488 0.137956 0.026820
			CHANNELS 3 Zrotation Yrotation Xrotation
			JOINT chest
			{
				OFFSET -0.002265 0.056032 0.002855
				CHANNELS 3 Zrotation Yrotation Xrotation
				JOINT lowerneck
				{
					OFFSET -0.013390 0.211636 -0.033468
					CHANNELS 3 Zrotation Yrotation Xrotation
					JOINT upperneck
					{
						OFFSET 0.010113 0.088937 0.050410
						CHANNELS 3 Zrotation Yrotation Xrotation
						End Site
						{
							OFFSET 0.000000 0.000000 0.000000
						}
					}
				}
				JOINT lclavicle
				{
					OFFSET 0.071702 0.114000 -0.018898
					CHANNELS 3 Zrotation Yrotation Xrotation
					JOINT lshoulder
					{
						OFFSET 0.122921 0.045205 -0.019046
						CHANNELS 3 Zrotation Yrotation Xrotation
						JOINT lelbow
						{
							OFFSET 0.255332 -0.015649 -0.022946
							CHANNELS 3 Zrotation Yrotation Xrotation
							JOINT lwrist
							{
								OFFSET 0.265709 0.012698 -0.007375
								CHANNELS 3 Zrotation Yrotation Xrotation
								End Site
								{
									OFFSET 0.000000 0.000000 0.000000
								}
							}
						}
					}
				}
				JOINT rclavicle
				{
					OFFSET -0.082954 0.112472 -0.023707
					CHANNELS 3 Zrotation Yrotation Xrotation
					JOINT rshoulder
					{
						OFFSET -0.113228 0.046853 -0.008472
						CHANNELS 3 Zrotation Yrotation Xrotation
						JOINT relbow
						{
							OFFSET -0.260127 -0.014369 -0.031269
							CHANNELS 3 Zrotation Yrotation Xrotation
							JOINT rwrist
							{
								OFFSET -0.269108 0.006794 -0.006027
								CHANNELS 3 Zrotation Yrotation Xrotation
								End Site
								{
									OFFSET 0.000000 0.000000 0.000000
								}
							}
						}
					}
				}
			}
		}
	}
}
MOTION
Frames: 5
Frame Time: 0.033333
-0.061295 0.166930 0.988738 -146.078953 2.717363 115.019447 6.875022 -11.543672 -44.222499 1.020179 -3.963886 20.311684 -6.278376 -7.279844 -3.919967 0.000000 -0.000000 0.000000 -4.772353 -7.838726 -27.189095 -4.335368 -21.073625 13.864923 6.575446 -7.993790 -6.024828 0.000000 -0.000000 0.000000 2.900608 5.266730 44.264546 -2.363136 -0.870882 0.596507 3.727803 0.650898 -5.951224 -13.385813 5.776812 -22.017104 -1.750222 11.322544 -23.137000 -14.392099 -11.786463 4.596551 -41.035573 -4.742105 11.980760 171.298199 -45.944505 -155.557541 -15.567796 -50.217603 -42.234217 5.866813 15.317112 3.715325 40.133334 -0.292270 10.931711 -169.374065 36.624697 -154.761355 23.794519 48.291926 -40.790220 
-0.060841 0.167806 0.990409 -146.011259 2.851907 114.778531 6.744935 -11.114140 -43.843223 1.170985 -3.843416 20.532160 -6.248419 -8.192013 -4.356547 0.000000 -0.000000 0.000000 -4.564672 -7.690835 -26.906017 -4.799180 -22.046447 14.331978 6.316804 -6.811455 -6.272411 0.000000 -0.000000 0.000000 2.769238 4.555665 45.548686 -2.675077 -1.375234 -1.821179 3.767668 0.960603 -5.420636 -13.336088 6.591541 -21.804627 -1.792496 11.545589 -23.026802 -15.705028 -12.377382 5.199179 -45.034318 -5.669554 12.764280 171.280691 -45.884566 -153.212462 -11.224807 -48.370475 -47.736746 8.204090 16.727622 4.993241 45.324711 2.402749 11.316291 -169.403825 37.409988 -152.642324 21.212289 47.965160 -44.602705 
-0.059466 0.167360 0.990493 -146.414027 3.077436 114.956024 7.017084 -10.772919 -44.154407 1.374624 -3.169383 20.988004 -6.045729 -8.889704 -4.887569 0.000000 -0.000000 0.000000 -4.366355 -7.418540 -27.525456 -5.240325 -22.687813 15.220864 6.252188 -5.712293 -6.647630 0.000000 -0.000000 0.000000 2.426913 4.710826 45.316566 -2.488567 -0.984034 -2.534211 3.812107 0.860129 -4.961836 -13.139057 7.404611 -22.013145 -2.461357 10.873487 -22.871991 -14.799693 -11.056562 4.432185 -48.718130 -8.493620 13.264602 172.279545 -47.132658 -153.087896 -10.262168 -48.180771 -51.311662 8.319183 15.397629 4.361010 48.834200 5.669316 12.765672 -170.287908 39.238271 -153.055625 18.859365 48.310920 -49.068057 
-0.058109 0.166083 0.989751 -146.720294 3.269322 115.048026 7.236329 -10.576278 -44.668714 1.427628 -2.970939 21.632669 -6.035448 -8.966359 -5.091080 0.000000 -0.000000 0.000000 -4.274750 -7.472728 -27.966850 -5.218675 -22.748445 15.607004 6.604871 -5.239926 -6.671010 0.000000 -0.000000 0.000000 2.422168 5.085662 44.840180 -2.176974 -0.549455 -2.405528 3.842031 0.736845 -4.533191 -13.169736 8.036740 -22.771727 -2.987852 9.801312 -22.229212 -13.120977 -9.909462 3.048623 -49.017019 -9.946289 12.994487 172.549666 -47.941827 -153.764655 -10.741368 -48.774530 -50.342962 7.375872 13.812561 3.282528 48.120263 6.775687 12.875363 -170.767354 40.181505 -154.063932 18.065085 48.384837 -49.754789 
-0.057214 0.165765 0.989030 -147.171682 3.503742 114.945719 7.456936 -10.440441 -44.689597 1.330830 -3.145249 21.673867 -6.200533 -8.226315 -4.918449 0.000000 -0.000000 0.000000 -4.040532 -7.313679 -28.048515 -4.859237 -21.611177 15.221346 6.543978 -6.289106 -6.547319 0.000000 -0.000000 0.000000 2.627393 5.414551 44.916024 -2.221704 -0.208528 -1.718779 3.882132 0.654849 -4.881364 -13.362253 7.168681 -23.279315 -2.546114 10.188020 -22.425628 -12.803031 -10.714825 2.807745 -44.722288 -8.174938 11.063858 170.419148 -46.856059 -152.148510 -13.622820 -49.571056 -45.572383 6.238528 14.740221 3.210217 43.578831 4.320999 11.083436 -169.507412 38.692782 -153.260937 20.315450 47.994192 -46.207362 
